<?xml version="1.0" standalone="no"?>
<!DOCTYPE svg PUBLIC "-//W3C//DTD SVG 20010904//EN"
 "http://www.w3.org/TR/2001/REC-SVG-20010904/DTD/svg10.dtd">
<svg version="1.0" xmlns="http://www.w3.org/2000/svg"
 width="940.000000pt" height="940.000000pt" viewBox="0 0 940.000000 940.000000"
 preserveAspectRatio="xMidYMid meet">
<metadata>
Created by potrace 1.11, written by Peter Selinger 2001-2013
</metadata>
<g transform="translate(0.000000,940.000000) scale(0.100000,-0.100000)"
fill="#000000" stroke="none">
<path d="M4686 9265 c-2 -7 0 -17 6 -23 6 -6 0 -9 -20 -7 -28 2 -29 1 -28 -39
1 -35 -2 -41 -19 -41 -13 0 -20 -6 -19 -17 1 -10 -2 -18 -6 -18 -5 0 -7 -12
-4 -27 3 -23 2 -25 -6 -10 -15 24 -27 21 -27 -5 -1 -42 -3 -47 -18 -42 -8 4
-15 1 -15 -6 0 -6 -5 -8 -12 -4 -10 6 -10 4 -2 -7 8 -10 8 -22 -2 -44 -7 -16
-14 -28 -14 -25 -1 3 -3 13 -5 23 -7 36 -14 29 -12 -12 2 -22 -1 -41 -6 -41
-4 0 -6 -4 -2 -9 3 -5 1 -13 -5 -16 -6 -4 -10 -3 -9 2 3 20 -2 34 -10 28 -6
-3 -8 -14 -6 -25 2 -11 0 -22 -5 -25 -4 -3 -6 -15 -3 -26 5 -19 4 -20 -17 -9
-21 11 -22 11 -18 -14 4 -20 -2 -32 -28 -55 -38 -31 -43 -43 -16 -35 14 5 14
3 -3 -10 -18 -15 -20 -15 -26 1 -5 15 -6 14 -11 -4 -3 -12 -1 -26 5 -32 8 -8
7 -11 -2 -11 -9 0 -11 -8 -8 -22 6 -22 6 -22 -13 2 l-19 25 5 -27 c2 -16 0
-28 -6 -28 -6 0 -8 -11 -4 -27 7 -26 7 -27 -10 -10 -23 22 -30 22 -23 -3 3
-11 1 -23 -4 -26 -5 -3 -6 -11 -2 -17 4 -7 -1 -6 -10 2 -15 12 -17 12 -11 -4
5 -12 4 -16 -3 -12 -6 4 -11 1 -10 -6 1 -43 -4 -55 -22 -50 -16 4 -18 0 -13
-23 4 -22 2 -26 -11 -21 -16 6 -41 -15 -30 -26 3 -4 1 -7 -6 -7 -9 0 -9 -5 0
-21 10 -20 9 -21 -10 -16 -21 5 -26 -6 -21 -42 1 -8 -4 -12 -14 -8 -8 3 -20
-2 -28 -11 -11 -15 -11 -15 3 -5 9 7 19 10 22 6 9 -9 9 -23 0 -21 -5 0 -16 -2
-26 -7 -13 -5 -15 -11 -7 -20 8 -10 3 -19 -22 -39 -27 -22 -30 -28 -18 -36 11
-7 11 -10 2 -10 -7 0 -11 -4 -7 -9 3 -6 -4 -8 -15 -6 -12 2 -20 -1 -19 -8 3
-28 -2 -39 -16 -33 -11 4 -15 -1 -15 -19 0 -14 -5 -25 -11 -25 -6 0 -8 -9 -4
-20 5 -15 3 -18 -9 -14 -10 4 -17 -2 -22 -21 -5 -19 -12 -25 -24 -22 -15 4
-17 0 -14 -19 2 -13 0 -24 -5 -24 -5 0 -8 -7 -7 -16 0 -9 -5 -19 -13 -22 -9
-3 -11 0 -6 8 5 9 4 11 -3 6 -7 -4 -12 -17 -12 -29 0 -45 -3 -55 -18 -50 -11
5 -11 7 0 15 10 8 10 9 -2 5 -8 -2 -16 -16 -16 -33 -3 -46 -3 -47 -19 -34 -8
7 -16 9 -17 4 0 -5 -2 -13 -3 -19 -2 -5 -3 -15 -4 -22 -1 -7 -8 -10 -18 -6
-15 5 -14 3 2 -10 17 -13 18 -18 6 -29 -8 -7 -11 -8 -8 -2 4 7 -1 15 -10 18
-10 4 -14 4 -11 0 4 -4 3 -16 -3 -27 -8 -14 -8 -18 0 -13 7 4 9 1 5 -8 -3 -8
-13 -13 -23 -11 -10 2 -18 -4 -19 -16 -1 -10 -3 -28 -4 -38 -1 -11 -5 -19 -8
-19 -19 2 -43 -4 -33 -9 10 -3 10 -10 2 -24 -5 -11 -14 -17 -20 -14 -8 6 -13
-8 -10 -27 0 -5 -7 -8 -16 -8 -15 0 -15 -2 -4 -9 19 -12 6 -42 -14 -34 -11 4
-16 1 -15 -8 5 -31 0 -41 -17 -35 -13 4 -11 0 6 -14 25 -21 21 -26 -8 -11 -15
9 -17 6 -16 -19 1 -17 -4 -31 -13 -35 -10 -4 -12 0 -8 11 5 14 4 15 -9 4 -8
-7 -13 -16 -10 -20 3 -5 1 -20 -5 -34 -7 -19 -6 -26 2 -26 6 0 9 -2 6 -5 -3
-3 -13 -2 -22 1 -14 5 -15 9 -4 16 10 8 10 9 -2 5 -8 -2 -14 -12 -12 -22 2
-12 -1 -15 -10 -9 -10 6 -10 4 1 -9 9 -12 10 -17 2 -17 -7 0 -10 -4 -6 -9 3
-5 0 -13 -6 -17 -8 -4 -9 -3 -5 4 4 7 1 12 -8 12 -10 0 -13 -7 -11 -20 3 -15
-3 -24 -20 -30 -32 -12 -32 -18 0 -15 14 2 23 -1 19 -7 -3 -5 -8 -7 -11 -4 -3
3 -14 1 -25 -5 -16 -9 -17 -13 -6 -27 11 -13 11 -14 -1 -7 -11 6 -13 4 -8 -8
3 -9 2 -19 -4 -22 -5 -4 -8 -1 -7 6 2 6 -2 13 -7 15 -6 2 -11 -4 -12 -13 -4
-55 -7 -62 -24 -53 -13 7 -16 5 -16 -13 -1 -42 -3 -48 -19 -45 -10 2 -19 -3
-21 -10 -3 -7 1 -10 10 -6 8 3 18 0 23 -7 4 -8 3 -10 -5 -5 -16 10 -43 -13
-37 -31 3 -8 0 -13 -7 -12 -6 1 -19 1 -27 0 -13 -1 -13 -3 -1 -10 12 -7 12
-13 3 -24 -7 -7 -8 -18 -4 -23 4 -5 -2 -1 -13 8 -19 16 -20 15 -22 -25 -2 -22
-8 -46 -14 -51 -9 -8 -10 -7 -4 4 7 12 6 13 -7 3 -8 -7 -19 -9 -24 -5 -4 4 -3
0 4 -10 8 -10 9 -18 3 -22 -5 -4 -8 -15 -6 -26 3 -17 1 -19 -17 -9 -15 8 -19
8 -14 0 4 -6 2 -11 -4 -11 -8 0 -8 -6 0 -20 6 -11 8 -21 5 -21 -3 -1 -9 -3
-15 -4 -5 -1 -14 -3 -19 -4 -5 0 -11 -11 -13 -23 -2 -16 -9 -22 -21 -20 -15 3
-17 -1 -12 -17 3 -12 2 -21 -3 -21 -6 0 -8 -10 -5 -22 4 -19 3 -20 -6 -8 -7
10 -11 11 -11 3 0 -7 -6 -11 -12 -9 -7 1 -10 1 -5 -1 11 -7 9 -33 -3 -33 -6 0
-9 -3 -9 -7 4 -23 -2 -43 -11 -38 -5 3 -7 13 -4 23 5 16 5 16 -6 0 -6 -10 -10
-24 -9 -30 3 -28 -3 -38 -38 -64 -21 -14 -31 -24 -22 -21 9 3 16 -1 16 -9 0
-8 -6 -13 -13 -10 -7 3 -18 -3 -26 -12 -9 -11 -10 -14 0 -8 6 4 12 3 12 -2 0
-15 -26 -33 -35 -24 -5 4 -5 1 -1 -5 4 -7 2 -13 -4 -13 -7 0 -10 -12 -8 -27 2
-17 -2 -28 -9 -29 -7 -1 -18 -2 -23 -3 -7 -1 -7 -8 1 -22 8 -15 8 -19 0 -15
-6 4 -11 0 -11 -9 0 -12 -4 -14 -19 -6 -16 9 -18 6 -16 -24 1 -19 -2 -40 -7
-47 -6 -10 -8 -10 -8 -1 0 7 -7 10 -15 7 -8 -4 -12 -10 -9 -15 3 -5 2 -18 -1
-30 -5 -15 -10 -17 -20 -9 -10 8 -15 8 -21 -1 -4 -7 -3 -9 3 -6 11 7 28 -22
18 -31 -3 -3 -5 1 -5 8 0 7 -3 10 -7 6 -8 -8 -9 -13 -12 -40 -1 -9 -9 -13 -21
-11 -13 2 -20 -2 -20 -11 0 -10 5 -12 13 -8 8 6 8 3 -1 -9 -8 -9 -17 -15 -20
-14 -4 1 -8 -2 -10 -8 -1 -5 2 -10 7 -10 5 0 13 -4 18 -9 4 -5 -4 -7 -20 -4
-26 5 -28 3 -24 -18 2 -12 0 -29 -4 -36 -7 -10 -9 -10 -9 0 0 6 -5 12 -11 12
-5 0 -7 -4 -4 -10 3 -5 1 -10 -6 -10 -6 0 -9 -8 -6 -19 6 -25 -10 -51 -28 -45
-15 6 -18 -5 -18 -58 0 -10 -3 -16 -7 -13 -11 7 -41 -30 -33 -40 5 -4 2 -4 -6
0 -11 6 -13 4 -8 -11 7 -18 7 -18 -8 0 -15 19 -15 19 -15 -5 1 -50 -3 -59 -21
-54 -10 3 -17 1 -16 -7 1 -29 -3 -48 -10 -47 -25 4 -34 -3 -31 -23 2 -16 -2
-22 -12 -20 -12 3 -13 1 -2 -9 15 -16 16 -29 1 -29 -5 0 -8 4 -5 9 3 5 0 11
-7 14 -8 3 -13 -3 -14 -17 -1 -47 -3 -57 -13 -51 -6 4 -7 12 -3 18 5 8 2 8 -9
-1 -8 -7 -16 -24 -17 -37 -3 -48 -4 -54 -13 -49 -4 3 -8 0 -8 -7 0 -7 -3 -10
-6 -7 -3 4 -1 15 5 25 8 15 7 20 -4 20 -8 0 -12 -4 -9 -8 3 -5 0 -18 -6 -29
-8 -15 -8 -20 1 -20 8 0 9 -4 0 -13 -6 -8 -7 -17 -3 -22 4 -4 -4 -2 -17 5 -21
11 -23 10 -18 -4 4 -9 4 -23 0 -32 -5 -13 -7 -13 -14 -2 -6 9 -9 9 -9 1 0 -6
5 -15 10 -18 5 -3 10 -11 10 -17 0 -7 -6 -6 -15 2 -10 9 -15 9 -16 1 -4 -32
-6 -36 -19 -33 -11 3 -11 0 0 -13 10 -12 11 -18 1 -28 -10 -9 -11 -8 -6 6 5
12 2 17 -9 17 -9 0 -13 -6 -10 -14 3 -8 0 -17 -6 -21 -8 -5 -8 -10 0 -20 8 -9
8 -15 0 -20 -5 -3 -10 -1 -10 4 0 6 -5 11 -11 11 -5 0 -7 -4 -4 -10 3 -5 1
-10 -5 -10 -6 0 -10 -8 -8 -17 2 -11 -6 -19 -22 -24 -16 -4 -19 -7 -7 -8 9 -1
17 -5 17 -11 0 -5 -7 -7 -16 -3 -11 4 -15 1 -13 -13 5 -26 -9 -44 -27 -37 -10
4 -15 1 -14 -8 4 -27 0 -40 -10 -34 -15 9 -12 -2 5 -19 14 -13 13 -15 -4 -13
-11 0 -17 5 -14 11 3 5 1 6 -5 3 -5 -4 -9 -18 -7 -32 2 -23 -5 -29 -31 -26 -9
1 -13 -19 -14 -74 -1 -15 -3 -16 -9 -6 -6 9 -11 10 -15 2 -4 -6 -11 -9 -15 -7
-4 3 -7 -5 -7 -17 1 -12 -4 -21 -11 -20 -13 3 -36 -64 -27 -78 3 -5 -2 -6 -10
-3 -9 3 -13 11 -9 18 3 6 2 7 -3 3 -5 -5 -9 -12 -9 -15 0 -4 -4 -13 -8 -19 -5
-8 -3 -13 5 -13 10 0 10 -2 -1 -9 -8 -5 -20 -7 -28 -4 -7 3 -13 0 -13 -7 0 -6
4 -8 10 -5 5 3 10 1 10 -4 0 -6 -4 -11 -10 -11 -5 0 -10 -11 -10 -25 0 -14 -5
-25 -11 -25 -5 0 -7 6 -3 13 4 6 -2 3 -13 -8 -14 -14 -17 -24 -11 -32 12 -15
-14 -29 -33 -17 -7 4 -10 2 -7 -7 3 -8 14 -12 24 -11 10 2 17 2 14 0 -44 -33
-44 -33 -35 -19 5 9 4 12 -2 8 -6 -4 -9 -17 -8 -30 2 -17 -2 -24 -14 -23 -9 1
-15 -6 -15 -16 1 -10 -3 -18 -8 -18 -6 0 -7 -8 -4 -17 6 -14 3 -14 -15 3 -12
10 -19 13 -15 6 4 -7 3 -18 -2 -25 -5 -7 -8 -20 -7 -30 2 -12 -2 -17 -13 -15
-10 2 -17 -4 -17 -14 0 -9 -4 -20 -8 -24 -4 -4 -7 -19 -7 -33 0 -24 0 -24 -16
-5 -8 10 -13 14 -10 7 4 -6 2 -14 -3 -18 -6 -3 -8 -12 -4 -20 3 -10 -1 -15
-12 -15 -12 0 -16 -6 -12 -20 3 -11 1 -18 -3 -15 -5 3 -10 -5 -12 -17 -2 -14
-9 -23 -19 -22 -12 1 -16 -5 -14 -22 1 -13 -2 -24 -7 -24 -18 0 -34 -25 -34
-52 0 -16 -3 -28 -7 -28 -4 0 -12 0 -18 0 -8 0 -8 4 0 14 9 11 9 16 0 22 -7 4
-9 3 -5 -4 3 -6 2 -13 -3 -17 -6 -3 -7 -13 -4 -22 5 -12 3 -14 -8 -8 -11 7
-12 6 -2 -7 15 -17 8 -28 -17 -28 -12 0 -17 -7 -15 -22 1 -13 -1 -32 -6 -43
-4 -11 -8 -14 -8 -6 -1 10 -4 11 -15 2 -8 -7 -12 -21 -9 -32 5 -17 2 -20 -18
-17 -24 3 -25 1 -28 -48 -1 -19 -5 -25 -16 -20 -14 5 -20 -9 -16 -41 1 -7 -3
-13 -9 -13 -6 0 -8 -4 -5 -10 3 -6 -1 -7 -9 -4 -9 3 -13 11 -9 17 4 6 1 7 -6
3 -9 -6 -8 -13 5 -27 16 -18 16 -19 1 -13 -12 4 -17 1 -17 -13 0 -26 -10 -35
-26 -22 -10 8 -13 6 -11 -9 1 -13 7 -18 17 -15 8 2 5 -2 -6 -9 -12 -7 -20 -20
-19 -29 2 -9 -3 -16 -10 -16 -7 0 -11 6 -8 14 3 7 0 13 -6 13 -6 0 -10 -3 -10
-7 1 -5 1 -23 0 -41 -1 -28 -4 -32 -20 -27 -15 5 -18 2 -14 -14 6 -23 -13 -61
-31 -61 -7 0 -16 -13 -19 -30 -4 -19 -17 -35 -37 -45 -32 -17 -38 -24 -17 -21
6 0 13 -3 14 -9 2 -5 -5 -10 -15 -10 -11 0 -17 -8 -16 -23 0 -12 -3 -22 -7
-22 -4 0 -6 -9 -4 -20 2 -12 0 -18 -6 -15 -5 4 -7 10 -4 15 3 5 1 11 -5 15 -6
4 -10 -5 -10 -19 0 -14 -5 -26 -11 -26 -6 0 -9 -7 -5 -15 3 -8 1 -15 -5 -15
-6 0 -8 -4 -4 -9 3 -5 0 -13 -6 -17 -7 -4 -9 -3 -5 4 3 6 2 13 -4 17 -9 6 -16
-42 -10 -70 1 -5 -2 -7 -6 -3 -11 11 -34 -12 -34 -34 0 -10 -5 -16 -10 -13 -6
4 -8 11 -5 16 10 15 -2 10 -16 -8 -10 -11 -10 -14 -2 -9 7 4 13 2 13 -3 0 -6
-5 -11 -12 -11 -6 0 -8 -3 -5 -6 3 -4 2 -15 -3 -25 -7 -12 -6 -19 2 -21 7 -3
5 -7 -6 -11 -9 -4 -15 -3 -12 2 3 5 0 11 -7 14 -9 3 -13 -5 -13 -27 0 -23 -4
-31 -17 -30 -10 1 -17 -5 -17 -17 0 -11 -3 -18 -7 -18 -22 4 -25 -2 -8 -15 17
-12 17 -13 -8 -20 -19 -4 -25 -11 -22 -26 2 -12 -1 -20 -8 -19 -30 4 -35 -2
-32 -37 3 -30 0 -36 -21 -44 -14 -6 -23 -14 -20 -18 2 -4 1 -14 -4 -22 -7 -11
-11 -11 -24 -1 -24 20 -19 5 5 -18 l21 -20 -22 6 c-15 4 -21 2 -17 -5 4 -5 1
-13 -5 -15 -10 -4 -9 -8 2 -17 12 -9 11 -10 -7 -8 -12 2 -21 -1 -20 -7 1 -5 6
-9 10 -7 5 1 6 -2 2 -8 -3 -6 -11 -8 -16 -5 -5 4 -9 -1 -9 -11 0 -11 -6 -15
-19 -11 -15 4 -18 -1 -16 -23 3 -35 -9 -55 -28 -47 -10 4 -14 -2 -13 -21 0
-17 -4 -26 -12 -24 -10 2 -10 -2 -1 -19 8 -15 8 -19 0 -15 -6 4 -11 3 -11 -3
0 -6 -8 -7 -18 -4 -15 6 -15 5 -3 -10 13 -16 8 -22 -13 -18 -5 1 -3 -6 5 -15
13 -16 12 -16 -7 -6 -22 12 -24 8 -25 -46 -1 -18 -4 -21 -15 -11 -8 7 -17 9
-21 5 -3 -3 -1 -6 5 -6 7 0 12 -5 12 -11 0 -5 -5 -7 -10 -4 -6 4 -10 3 -9 -2
4 -22 -2 -43 -11 -38 -14 9 -12 -8 2 -25 7 -8 2 -6 -11 5 -21 17 -24 18 -18 3
3 -10 2 -20 -4 -24 -5 -3 -7 -15 -4 -27 4 -12 3 -17 -2 -12 -13 16 -31 16 -37
-1 -3 -8 -1 -12 4 -9 5 3 7 0 4 -8 -3 -8 -14 -17 -25 -20 -11 -3 -19 -9 -18
-14 1 -4 1 -21 0 -36 -1 -21 -6 -27 -18 -25 -12 2 -18 -3 -17 -15 1 -9 -2 -17
-8 -17 -5 0 -6 -4 -3 -10 3 -5 -2 -10 -12 -10 -12 0 -18 -8 -18 -24 0 -20 4
-23 24 -19 14 2 28 6 33 9 5 3 20 -2 35 -11 19 -13 28 -14 37 -5 8 8 7 10 -7
5 -9 -4 -17 -3 -17 3 0 18 64 4 82 -18 10 -12 18 -18 18 -12 0 5 11 8 25 7 30
-4 30 -2 8 16 -11 10 -14 10 -9 1 5 -8 1 -11 -15 -9 -13 2 -24 8 -26 14 -5 14
53 9 72 -7 12 -10 18 -11 28 -1 9 10 8 11 -6 6 -9 -4 -17 -3 -17 3 0 19 97 5
132 -18 18 -13 27 -17 21 -10 -22 23 -14 35 21 35 19 0 32 -3 30 -7 -3 -4 0
-8 7 -8 7 0 9 -3 6 -6 -4 -4 -13 -1 -22 6 -11 9 -15 9 -15 1 0 -7 -5 -9 -12
-5 -6 4 -8 3 -5 -2 3 -6 18 -10 34 -9 20 0 27 5 25 16 -3 24 110 19 141 -7 12
-10 16 -12 10 -4 -18 20 -16 35 2 20 10 -8 15 -9 15 -1 0 14 48 10 60 -5 12
-13 -19 -16 -36 -2 -8 5 -14 3 -18 -7 -3 -10 -2 -13 5 -10 5 4 16 1 24 -5 12
-10 15 -10 15 0 0 10 3 10 14 0 13 -10 14 -8 11 13 -5 23 -3 24 54 22 43 -1
68 -8 92 -25 19 -13 28 -17 22 -10 -23 25 -14 36 29 34 30 -1 46 -7 60 -24 10
-12 18 -18 18 -12 0 5 11 8 25 7 30 -4 30 -2 8 16 -11 10 -14 10 -9 1 5 -8 1
-11 -15 -9 -13 2 -24 8 -26 14 -5 14 53 9 72 -7 12 -10 18 -11 28 -1 9 10 8
11 -6 6 -9 -4 -17 -3 -17 3 0 18 64 4 82 -18 10 -12 18 -18 18 -12 0 5 11 8
25 7 30 -4 30 -2 8 16 -11 10 -14 10 -9 1 5 -8 1 -11 -15 -9 -13 2 -24 8 -26
14 -5 14 53 9 72 -7 12 -10 18 -11 28 -1 9 10 8 11 -5 6 -10 -4 -18 -3 -18 3
0 19 97 5 132 -18 18 -13 27 -17 21 -10 -22 23 -14 35 21 35 19 0 32 -3 30 -7
-3 -4 0 -8 7 -8 7 0 9 -3 6 -6 -4 -4 -13 -1 -22 6 -11 9 -15 9 -15 1 0 -7 -5
-9 -12 -5 -6 4 -8 3 -5 -2 3 -6 18 -10 34 -9 20 0 27 5 25 16 -3 24 110 19
141 -7 12 -10 16 -12 10 -4 -18 20 -16 35 2 20 10 -8 15 -9 15 -1 0 14 48 10
60 -5 12 -13 -19 -16 -36 -2 -8 5 -14 3 -18 -7 -3 -10 -2 -13 5 -10 5 4 16 1
24 -5 12 -10 15 -10 15 0 0 10 3 10 14 0 13 -10 14 -8 11 13 -5 23 -3 24 54
22 43 -1 68 -8 92 -25 19 -13 28 -17 22 -10 -23 25 -14 36 29 34 30 -1 46 -7
60 -24 10 -12 18 -18 18 -12 0 5 11 8 25 7 30 -4 30 -2 8 16 -11 10 -14 10 -9
1 5 -8 1 -11 -15 -9 -13 2 -24 8 -26 14 -5 14 53 9 72 -7 12 -10 18 -11 28 -1
9 10 8 11 -6 6 -9 -4 -17 -3 -17 3 0 18 64 4 82 -18 10 -12 18 -18 18 -12 0 5
11 8 25 7 30 -4 30 -2 8 16 -11 10 -14 10 -9 1 5 -8 1 -11 -15 -9 -13 2 -24 8
-26 14 -5 14 53 9 72 -7 12 -10 18 -11 28 -1 9 10 8 11 -5 6 -10 -4 -18 -3
-18 3 0 15 99 6 118 -10 17 -15 42 -14 42 2 0 5 -9 7 -20 5 -11 -2 -20 0 -20
6 0 5 10 7 23 5 12 -3 25 -5 29 -5 3 -1 4 -9 1 -20 -4 -15 0 -18 20 -16 20 2
24 -1 20 -16 -4 -14 -1 -17 16 -14 20 4 24 -1 24 -38 0 -14 2 -15 14 -5 10 8
17 8 21 1 4 -6 17 -13 29 -17 13 -4 22 -12 20 -19 -1 -6 3 -11 10 -12 7 0 18
-6 25 -14 7 -8 8 -11 2 -8 -6 3 -11 0 -11 -8 0 -18 9 -19 23 -5 7 7 16 4 29
-10 18 -20 18 -21 -1 -14 -14 5 -16 4 -8 -5 6 -7 21 -13 33 -14 19 -1 27 -15
21 -42 -1 -5 4 -5 11 2 9 9 15 8 26 -3 8 -7 12 -18 9 -22 -3 -5 1 -9 8 -9 8 0
12 9 9 21 -2 12 2 9 10 -9 8 -16 12 -34 9 -39 -3 -5 0 -6 7 -2 6 4 9 12 6 17
-3 5 1 6 9 3 8 -3 13 -14 11 -24 -3 -13 1 -18 14 -15 10 2 24 -1 32 -6 11 -7
10 -9 -6 -9 -18 -1 -17 -2 5 -14 14 -8 29 -12 34 -9 5 4 7 -3 4 -15 -4 -12 -2
-20 3 -16 5 3 9 -1 9 -8 0 -9 3 -9 10 2 6 10 10 11 10 3 0 -7 10 -13 22 -13
12 0 19 -3 15 -6 -9 -9 20 -35 35 -32 7 2 12 -4 10 -14 -1 -9 2 -19 8 -23 5
-3 10 -1 10 6 0 8 3 9 13 0 8 -6 17 -9 21 -6 3 3 2 -1 -4 -7 -15 -18 -12 -28
5 -22 8 4 15 1 15 -6 0 -7 6 -10 13 -7 8 3 19 2 26 -3 10 -5 9 -9 -4 -13 -10
-5 -14 -3 -9 5 4 7 3 8 -5 4 -16 -10 -4 -26 14 -19 9 3 15 -1 15 -10 0 -21 17
-31 26 -16 4 8 3 9 -4 5 -7 -4 -12 -2 -12 3 0 6 7 11 16 11 11 0 15 -6 11 -20
-3 -11 -1 -18 4 -14 5 3 9 0 9 -5 0 -6 6 -11 14 -11 8 0 17 -9 21 -19 4 -12
12 -18 21 -14 7 3 15 0 15 -6 3 -26 4 -30 13 -38 5 -5 6 -3 2 5 -9 15 -7 15
33 1 17 -6 31 -16 31 -21 0 -7 -5 -6 -14 1 -9 8 -16 8 -20 2 -4 -5 -2 -12 4
-16 5 -3 10 -3 10 1 0 3 6 2 13 -3 6 -6 20 -9 30 -8 20 4 23 -11 5 -18 -7 -3
-2 -6 11 -6 18 -1 22 -5 16 -19 -5 -14 -4 -15 6 -4 20 19 28 14 23 -12 -3 -20
0 -23 22 -20 18 2 24 -1 20 -12 -3 -8 4 -19 17 -25 20 -11 21 -11 8 5 -8 9
-11 19 -7 23 3 3 6 1 6 -6 0 -7 4 -10 8 -7 4 2 9 -5 9 -17 1 -12 7 -23 13 -25
6 -2 17 -10 25 -19 10 -9 15 -10 15 -2 0 8 4 8 15 -1 13 -11 13 -15 3 -21 -13
-9 -6 -12 33 -12 11 0 15 -6 12 -17 -3 -10 1 -21 8 -25 8 -6 10 -4 4 4 -5 9
-1 9 14 -1 22 -13 26 -23 14 -31 -5 -2 -3 -2 4 -1 7 2 15 -1 19 -7 3 -6 12 -8
20 -5 12 5 12 2 3 -15 -6 -11 -8 -23 -5 -27 3 -3 6 0 6 5 0 6 8 10 18 8 9 -2
17 -4 17 -5 0 -1 8 -3 18 -5 22 -4 35 -15 19 -15 -6 0 -9 -7 -5 -16 4 -10 13
-14 28 -10 15 4 22 1 22 -9 0 -8 -5 -11 -11 -8 -7 4 -7 2 0 -6 6 -7 20 -14 30
-15 11 -2 19 -9 19 -16 0 -7 7 -15 15 -17 13 -4 13 -3 0 6 -9 6 -10 11 -3 11
6 0 21 -12 33 -27 13 -17 19 -21 16 -10 -3 11 -2 16 4 12 6 -3 10 -16 10 -28
0 -18 2 -19 10 -7 7 11 10 11 10 2 0 -7 5 -10 12 -6 7 5 9 1 6 -13 -5 -17 -1
-21 18 -18 14 1 25 -3 25 -11 1 -8 3 -18 4 -24 1 -5 3 -13 4 -16 0 -4 7 -1 14
5 16 13 27 5 27 -21 0 -11 5 -16 10 -13 6 4 8 10 5 15 -3 5 -1 11 4 15 6 3 8
-3 6 -14 -2 -11 4 -26 13 -33 9 -7 13 -8 9 -2 -3 6 0 11 8 11 8 0 17 -7 19
-14 3 -8 2 -12 -2 -9 -4 2 -14 0 -22 -6 -13 -8 -12 -9 2 -5 9 3 19 3 23 -1 4
-4 11 -8 16 -8 5 -1 13 -2 18 -3 5 0 7 -11 3 -23 -3 -13 -1 -19 6 -15 5 4 21
3 34 -2 12 -6 17 -10 9 -10 -11 -1 -11 -4 -1 -15 6 -8 18 -12 26 -9 11 4 15 0
12 -13 -2 -13 4 -20 20 -22 12 -2 19 -8 16 -14 -4 -5 4 -4 17 3 22 11 23 11
10 -5 -12 -14 -12 -16 3 -10 12 5 15 2 10 -10 -4 -9 -3 -16 2 -15 24 4 36 -2
30 -17 -5 -13 -2 -15 14 -11 11 3 20 1 20 -5 0 -6 7 -8 15 -5 8 4 17 1 21 -5
4 -6 3 -8 -2 -5 -6 3 -16 2 -22 -2 -10 -6 -9 -11 4 -22 12 -9 15 -10 10 -1 -9
15 6 16 22 0 7 -7 12 -8 12 -4 0 5 7 3 15 -4 8 -7 13 -15 11 -19 -3 -4 4 -12
15 -19 12 -8 19 -9 19 -1 0 5 5 7 10 4 8 -5 7 -11 -1 -21 -9 -11 -9 -14 0 -14
7 0 9 -5 5 -12 -6 -10 -5 -10 8 0 13 10 18 9 29 -5 9 -11 10 -14 2 -9 -9 5
-11 2 -7 -8 5 -12 11 -13 24 -6 20 11 36 -2 26 -19 -3 -5 2 -15 11 -22 14 -12
16 -12 8 1 -6 12 -5 13 6 3 7 -7 21 -13 32 -13 10 0 15 -5 12 -10 -4 -6 -10
-8 -15 -5 -5 3 -11 2 -14 -3 -5 -8 1 -10 44 -14 18 -2 24 -10 22 -29 -1 -3 12
-5 28 -5 23 0 27 2 18 13 -11 14 -2 17 35 14 9 -1 17 3 17 8 0 6 3 10 8 9 4
-2 8 2 9 7 1 6 -5 9 -12 9 -8 -1 -12 2 -9 7 3 5 11 9 17 8 27 -3 36 2 31 19
-3 9 1 6 9 -7 8 -14 17 -19 21 -13 3 6 2 13 -4 17 -14 9 -1 28 15 21 15 -5 38
17 28 27 -3 4 -1 7 6 7 7 0 9 5 5 12 -6 10 -5 10 7 2 11 -9 17 -9 27 2 10 11
10 14 0 14 -9 0 -9 3 2 9 8 6 18 7 22 5 4 -3 13 7 18 21 5 14 14 24 19 20 5
-3 12 -1 16 5 3 5 11 10 16 10 6 0 7 -5 4 -10 -3 -6 -4 -10 -1 -10 3 0 10 9
16 20 9 17 8 19 -7 13 -10 -3 -15 -2 -10 2 4 5 17 9 30 10 14 1 21 8 20 19 0
11 4 15 12 12 10 -3 12 0 8 12 -6 14 -4 15 9 4 18 -15 34 0 22 20 -5 8 0 9 14
6 12 -4 20 -2 16 3 -3 5 -1 9 5 9 6 0 8 6 5 14 -3 8 -1 17 4 20 5 3 9 0 8 -7
-1 -13 13 -22 16 -9 5 17 24 29 43 25 16 -4 17 -3 5 6 -13 10 -13 12 0 21 8 5
26 10 40 11 14 0 19 3 13 6 -21 8 -15 32 7 28 11 -2 20 1 20 6 0 6 5 7 11 3 8
-4 8 0 0 15 -7 12 -8 21 -4 20 24 -4 43 2 37 12 -4 8 0 8 15 0 12 -7 21 -8 20
-4 -4 24 3 34 23 31 17 -2 23 2 23 17 0 12 8 22 20 25 11 3 20 12 20 20 0 9
11 15 28 16 15 1 33 7 40 14 10 10 8 10 -10 1 -15 -8 -23 -8 -23 -1 0 5 5 10
11 10 5 0 8 4 5 9 -3 5 6 9 20 9 14 0 35 9 48 21 12 11 29 21 37 21 12 0 12 2
0 9 -7 5 -10 14 -7 20 4 6 12 9 17 5 14 -8 39 15 32 31 -3 10 1 13 16 10 12
-2 21 1 21 8 0 8 3 8 9 -1 6 -10 10 -10 21 3 11 13 10 15 -3 10 -8 -4 -18 -2
-21 3 -5 9 48 27 67 23 5 -1 6 3 2 9 -3 6 -12 7 -18 4 -7 -4 -8 -3 -4 2 5 5
14 9 20 9 7 1 11 7 9 15 -3 11 0 11 12 0 12 -9 16 -9 16 -1 0 7 4 10 9 7 5 -4
7 3 4 13 -4 15 0 19 14 17 10 -2 21 2 25 8 12 17 9 28 -4 20 -10 -5 -10 -3 0
7 11 11 14 12 21 1 6 -11 10 -10 16 5 5 10 7 22 6 26 -1 5 3 6 9 2 6 -3 8 -10
6 -14 -3 -4 1 -8 9 -8 10 0 11 5 4 18 -7 14 -6 17 9 14 10 -1 26 3 37 11 11 9
14 14 6 14 -11 0 -11 3 -1 15 10 12 16 13 28 3 13 -11 15 -10 9 4 -3 10 -2 18
4 18 6 0 7 5 3 12 -5 8 -2 9 9 5 18 -7 42 24 29 38 -4 5 -2 5 5 2 16 -10 44 3
36 17 -4 6 0 6 9 -2 10 -8 19 -9 22 -3 4 5 -2 15 -11 21 -17 11 -17 11 0 6 9
-3 17 0 17 6 0 7 4 7 13 0 8 -7 18 -7 27 -2 8 6 10 10 4 10 -20 0 -11 26 10
28 11 0 22 6 24 12 2 5 9 7 15 3 7 -4 5 2 -3 12 -14 17 -13 18 3 12 9 -3 17
-2 17 4 0 6 5 7 10 4 6 -3 10 3 10 14 0 12 6 21 13 21 7 0 25 12 41 26 18 17
31 23 35 16 4 -7 11 -4 19 8 8 13 9 20 1 20 -5 0 -8 4 -5 9 3 5 15 7 27 4 16
-5 20 -2 17 13 -2 14 3 19 19 18 13 -1 20 3 17 7 -3 5 0 9 6 9 6 0 8 5 4 12
-5 8 -2 9 9 5 10 -3 17 -2 17 4 0 6 5 7 12 3 7 -5 9 -1 6 13 -3 11 0 20 6 21
6 1 22 3 36 5 18 3 25 10 24 24 -1 12 5 20 15 20 34 0 40 4 36 22 -2 13 2 18
17 17 13 -1 22 6 24 17 1 11 6 22 10 25 4 4 4 -2 1 -13 -7 -19 -6 -19 7 -2 7
10 18 17 22 16 23 -4 35 3 32 18 -3 17 1 19 38 22 8 0 12 6 9 11 -4 6 -11 8
-16 5 -22 -14 -6 4 17 20 15 9 24 12 20 7 -3 -6 -1 -14 5 -18 8 -4 9 -3 5 4
-4 7 -3 12 3 12 5 0 8 9 6 21 -3 15 0 19 10 15 8 -3 17 -1 20 5 4 5 12 6 18 2
7 -4 6 0 -2 10 -12 15 -11 17 8 17 34 0 61 18 54 36 -4 12 0 15 18 12 18 -2
24 2 23 14 -1 10 2 15 7 12 5 -3 9 0 9 6 0 7 7 10 15 6 8 -3 15 -1 15 5 0 6 7
8 16 5 10 -4 14 -1 12 6 -3 7 -10 13 -16 13 -5 0 -13 3 -16 6 -12 12 94 2 109
-11 12 -10 18 -11 28 -1 9 10 8 11 -5 6 -10 -4 -18 -3 -18 3 0 18 64 4 82 -18
10 -12 18 -18 18 -12 0 5 11 8 25 7 30 -4 30 -2 8 16 -11 10 -14 10 -9 1 5 -8
1 -11 -15 -9 -13 2 -24 8 -26 14 -5 14 53 9 72 -7 12 -10 18 -11 28 -1 9 10 8
11 -5 6 -10 -4 -18 -3 -18 3 0 19 97 5 132 -18 18 -13 27 -17 21 -10 -22 23
-14 35 21 35 19 0 32 -3 30 -7 -3 -4 0 -8 7 -8 7 0 9 -3 6 -6 -4 -4 -13 -1
-22 6 -11 9 -15 9 -15 1 0 -7 -5 -9 -12 -5 -6 4 -8 3 -5 -2 3 -6 18 -10 34 -9
20 0 27 5 25 16 -3 24 110 19 141 -7 12 -10 16 -12 10 -4 -18 20 -16 35 2 20
10 -8 15 -9 15 -1 0 14 48 10 60 -5 12 -13 -19 -16 -36 -2 -8 5 -14 3 -18 -7
-3 -10 -2 -13 5 -10 5 4 16 1 24 -5 12 -10 15 -10 15 0 0 10 3 10 14 0 13 -10
14 -8 11 13 -5 23 -3 24 54 22 43 -1 68 -8 92 -25 19 -13 28 -17 22 -10 -23
25 -14 36 29 34 30 -1 46 -7 60 -24 10 -12 18 -18 18 -12 0 5 11 8 25 7 30 -4
30 -2 8 16 -11 10 -14 10 -9 1 5 -8 1 -11 -15 -9 -13 2 -24 8 -26 14 -5 14 53
9 72 -7 12 -10 18 -11 28 -1 9 10 8 11 -5 6 -10 -4 -18 -3 -18 3 0 18 64 4 82
-18 10 -12 18 -18 18 -12 0 5 11 8 25 7 30 -4 30 -2 8 16 -11 10 -14 10 -9 1
5 -8 1 -11 -15 -9 -13 2 -24 8 -26 14 -5 14 53 9 72 -7 12 -10 18 -11 28 -1 9
10 8 11 -5 6 -10 -4 -18 -3 -18 3 0 19 97 5 132 -18 18 -13 27 -17 21 -10 -22
23 -14 35 21 35 19 0 32 -3 30 -7 -3 -4 0 -8 7 -8 7 0 9 -3 6 -6 -4 -4 -13 -1
-22 6 -11 9 -15 9 -15 1 0 -7 -5 -9 -12 -5 -6 4 -8 3 -5 -2 3 -6 18 -10 34 -9
20 0 27 5 25 16 -3 24 110 19 141 -7 12 -10 16 -12 10 -4 -18 20 -16 35 2 20
10 -8 15 -9 15 -1 0 14 48 10 60 -5 12 -13 -19 -16 -36 -2 -8 5 -14 3 -18 -7
-3 -10 -2 -13 5 -10 5 4 16 1 24 -5 12 -10 15 -10 15 0 0 10 3 10 14 0 13 -10
14 -8 11 13 -5 23 -3 24 54 22 43 -1 68 -8 92 -25 19 -13 28 -17 22 -10 -23
25 -14 36 29 34 30 -1 46 -7 60 -24 10 -12 18 -18 18 -12 0 5 11 8 25 7 30 -4
30 -2 8 16 -11 10 -14 10 -9 1 5 -8 1 -11 -15 -9 -13 2 -24 8 -26 14 -5 14 53
9 72 -7 12 -10 18 -11 28 -1 9 10 8 11 -5 6 -10 -4 -18 -3 -18 3 0 18 64 4 82
-18 10 -12 18 -18 18 -12 0 5 11 8 25 7 30 -4 30 -2 8 16 -11 10 -14 10 -9 1
5 -8 1 -11 -15 -9 -13 2 -24 8 -26 14 -5 14 53 9 72 -7 12 -10 18 -11 28 -1 9
10 8 11 -5 6 -10 -4 -18 -3 -18 2 0 5 30 9 66 8 66 -1 81 5 67 28 -12 20 -12
38 0 30 7 -4 6 1 -2 10 -7 9 -20 17 -27 17 -12 0 -18 24 -17 67 0 7 -2 12 -6
11 -3 0 -15 0 -26 1 -15 1 -16 4 -7 10 10 6 10 10 -2 21 -9 7 -13 16 -10 21 3
5 1 9 -5 9 -5 0 -12 -6 -14 -12 -3 -7 -6 -1 -7 15 -2 15 -4 32 -5 37 -1 6 -4
16 -5 23 -1 6 -6 1 -10 -13 -5 -17 -8 -19 -9 -7 -1 9 -5 17 -9 17 -4 0 -9 9
-10 20 -4 45 -6 50 -21 48 -11 -2 -16 5 -15 24 0 15 -3 25 -7 22 -4 -2 -12 3
-19 11 -7 8 -9 15 -5 15 4 0 1 7 -6 17 -8 9 -13 19 -12 22 1 3 0 8 -3 10 -2 2
-1 -7 1 -19 3 -15 1 -20 -5 -14 -5 5 -11 23 -13 40 -4 39 -14 54 -32 48 -10
-4 -13 0 -10 14 2 13 -3 22 -16 25 -16 4 -25 29 -20 60 0 4 -4 7 -10 7 -5 0
-7 6 -3 13 6 9 4 9 -8 -1 -18 -14 -27 -6 -23 21 2 9 -1 17 -7 17 -6 0 -8 6 -5
14 4 9 -2 16 -15 19 -14 4 -19 11 -15 21 6 15 -4 21 -26 17 -5 -1 -6 3 -2 9 3
5 2 10 -4 10 -5 0 -8 9 -6 21 3 16 0 19 -13 14 -14 -5 -15 -4 -4 6 6 7 12 20
12 29 0 11 -2 12 -8 2 -5 -7 -16 -10 -26 -6 -13 5 -14 9 -5 20 9 11 9 14 0 14
-7 0 -10 4 -6 9 3 6 -4 8 -15 6 -12 -2 -18 0 -14 6 3 5 0 17 -8 26 -9 12 -9
15 0 9 18 -11 15 -2 -9 25 l-22 24 6 -25 c6 -24 5 -24 -8 -6 -9 12 -11 23 -5
31 5 6 5 17 0 25 -5 8 -6 18 -3 24 3 5 1 6 -5 2 -7 -4 -20 7 -33 29 -17 28
-24 33 -31 23 -7 -9 -8 -4 -5 15 3 21 1 27 -9 23 -8 -3 -14 -1 -14 5 0 6 -5 7
-12 3 -7 -4 -8 -3 -4 5 4 6 12 9 17 6 5 -4 9 -1 9 4 0 6 -7 11 -15 11 -8 0
-16 5 -16 10 -1 6 -2 15 -3 21 0 6 -9 16 -18 23 -10 7 -15 16 -11 19 3 4 1 7
-6 7 -9 0 -12 9 -9 24 4 19 1 22 -14 18 -12 -3 -18 1 -19 12 -1 9 -3 21 -4 26
-1 6 -3 13 -4 16 0 4 -8 1 -16 -6 -13 -11 -14 -10 -10 2 3 8 -1 21 -10 28 -12
10 -13 16 -4 26 9 11 8 14 -5 14 -9 0 -16 -5 -16 -12 0 -6 -3 -8 -6 -5 -4 4
-1 14 6 22 11 13 11 16 0 13 -8 -2 -15 4 -16 12 -4 42 -5 45 -14 25 -8 -19 -9
-19 -11 3 -1 12 -3 27 -4 32 -1 6 -3 17 -4 26 -1 11 -7 15 -20 11 -14 -3 -19
0 -16 13 2 10 -6 22 -20 30 -14 7 -22 21 -22 37 -1 13 -10 33 -22 44 -12 11
-18 25 -15 31 5 7 0 9 -14 6 -21 -6 -26 1 -23 29 1 7 -5 25 -14 40 -15 27 -16
27 -9 3 6 -24 5 -24 -9 -5 -8 10 -13 25 -10 32 3 7 0 13 -6 13 -7 0 -9 10 -7
25 3 14 1 23 -5 20 -5 -3 -17 -1 -26 4 -12 7 -14 10 -4 11 11 0 11 3 1 15 -7
8 -16 13 -20 10 -4 -3 -11 2 -14 11 -4 10 -2 13 7 8 6 -4 -3 6 -20 23 -21 20
-33 41 -33 58 0 15 -4 24 -10 20 -6 -3 -10 -1 -10 5 0 6 -5 8 -12 4 -8 -5 -7
0 2 11 11 14 12 17 1 10 -11 -6 -13 -1 -9 22 5 33 -15 40 -33 12 -7 -11 -9
-10 -7 6 3 37 -2 56 -12 50 -5 -3 -10 -1 -10 5 0 6 -5 8 -12 4 -7 -5 -8 -3 -3
6 5 8 -1 20 -16 32 l-24 19 25 -12 c22 -11 23 -10 13 3 -7 8 -10 17 -7 20 2 3
-2 8 -11 12 -11 4 -14 2 -9 -7 5 -9 4 -9 -6 0 -7 7 -14 28 -14 46 -1 25 -5 33
-14 29 -10 -3 -11 -7 -2 -12 9 -5 9 -9 1 -14 -6 -4 -12 -2 -12 3 -1 6 -2 14
-4 19 -17 63 -17 63 -33 50 -13 -11 -14 -11 -8 0 10 16 -22 54 -37 45 -6 -3
-7 -1 -3 6 5 8 12 9 20 2 8 -7 12 -4 13 12 1 12 -1 17 -5 11 -4 -7 -15 -8 -27
-3 -13 5 -15 8 -5 8 12 1 12 3 2 10 -8 4 -13 12 -13 17 1 5 -4 9 -11 9 -6 0
-13 6 -16 14 -3 8 0 11 5 8 6 -4 1 11 -9 33 -11 22 -24 37 -29 34 -5 -3 -9 -7
-9 -10 0 -3 4 -2 10 1 6 3 7 -1 3 -10 -8 -22 -23 0 -18 26 2 10 -1 21 -6 24
-5 4 -6 12 -2 18 4 7 -2 5 -12 -3 -10 -8 -16 -9 -11 -3 4 7 2 22 -4 33 -8 14
-8 20 0 20 6 0 8 5 5 11 -5 6 -12 4 -22 -8 -13 -17 -14 -17 -9 0 3 9 1 17 -4
17 -5 0 -7 9 -5 21 4 17 0 20 -18 17 -17 -3 -23 0 -23 13 0 10 4 16 7 13 4 -2
11 1 15 7 4 7 3 9 -3 6 -16 -10 -34 17 -27 39 5 18 5 18 -10 0 -16 -20 -21
-13 -17 21 1 6 -3 14 -9 18 -8 5 -7 12 2 23 7 10 8 14 4 10 -5 -4 -16 -2 -24
5 -13 10 -14 9 -7 -2 5 -10 4 -12 -4 -7 -7 4 -11 17 -9 29 2 16 -2 22 -17 21
-16 0 -20 7 -22 34 -2 40 -17 60 -28 41 -5 -8 -4 -10 3 -5 7 4 12 3 12 -3 0
-16 -17 -22 -22 -8 -3 6 -4 21 -3 33 1 11 -5 26 -12 32 -10 10 -13 10 -13 0 0
-9 -3 -9 -9 2 -6 8 -8 18 -5 22 8 13 -16 48 -33 48 -10 0 -14 6 -10 19 3 12
-1 22 -9 25 -8 3 -14 0 -15 -7 -1 -7 -7 8 -15 32 -7 24 -11 47 -9 52 3 4 0 11
-6 15 -8 4 -9 3 -5 -4 4 -7 3 -12 -3 -12 -13 0 -30 32 -24 46 2 7 -4 11 -13
10 -9 0 -19 5 -21 12 -3 6 0 12 7 12 6 0 8 -5 4 -12 -5 -7 -3 -8 5 -3 9 5 7
12 -8 26 -12 11 -21 24 -21 29 0 5 -8 6 -17 3 -12 -5 -15 -2 -10 10 3 9 2 19
-4 22 -5 4 -7 10 -4 15 3 4 -2 10 -10 13 -10 4 -12 1 -8 -11 3 -9 3 -14 -1
-11 -6 6 -12 25 -20 69 -2 8 -8 16 -14 16 -7 1 -16 2 -20 3 -5 0 -9 8 -9 16 0
11 4 12 13 4 8 -7 14 -6 20 2 4 7 3 9 -4 5 -13 -8 -35 28 -24 39 4 5 1 5 -6 1
-7 -4 -10 -11 -8 -15 3 -4 -1 -8 -9 -8 -8 0 -12 3 -10 7 2 4 0 24 -6 45 -8 28
-14 34 -22 26 -20 -20 -25 -12 -23 33 2 25 0 45 -3 44 -20 -2 -31 3 -26 12 3
6 0 10 -7 10 -10 0 -9 3 2 11 12 9 11 10 -7 6 -13 -3 -24 -1 -24 4 -2 10 -5
25 -9 37 -1 4 -1 16 0 27 l2 20 -17 -20 c-9 -11 -14 -15 -11 -9 3 7 -1 15 -10
18 -12 5 -14 10 -5 20 13 16 4 27 -17 19 -11 -5 -13 -3 -6 8 13 22 13 38 0 33
-7 -3 -19 3 -27 12 -8 10 -9 15 -3 11 6 -3 11 0 11 9 0 9 -7 12 -18 9 -14 -5
-17 -1 -15 20 2 16 -7 39 -26 63 -35 43 -44 53 -33 32 4 -8 -1 -6 -12 5 -11
12 -18 28 -15 39 4 15 1 18 -11 13 -10 -4 -17 -2 -17 3 0 5 8 11 18 13 13 4
11 5 -5 6 -21 1 -29 20 -24 54 0 4 -4 7 -9 7 -6 0 -10 -7 -10 -15 0 -13 -2
-13 -14 -3 -9 9 -10 15 -3 20 8 4 8 10 0 20 -6 7 -9 20 -8 29 2 12 -3 15 -18
11 -17 -4 -19 -1 -15 16 7 24 -17 51 -25 30 -3 -8 -6 -6 -6 5 -1 12 -6 16 -13
11 -10 -5 -10 -4 -1 6 9 10 8 16 -3 28 -13 12 -13 17 -2 24 9 6 8 8 -7 6 -15
-2 -21 3 -23 24 -2 17 -15 36 -33 48 -16 12 -29 27 -29 33 0 7 4 6 10 -3 5 -8
10 -10 10 -4 0 6 -8 18 -17 25 -11 10 -14 10 -9 2 4 -7 2 -13 -3 -13 -6 0 -12
11 -12 25 -2 38 -3 43 -13 52 -5 4 -6 3 -3 -3 4 -7 0 -15 -9 -18 -12 -4 -14
-1 -9 14 4 11 2 20 -4 20 -5 0 -8 10 -6 21 3 12 2 19 -2 15 -3 -3 -13 0 -21 7
-13 10 -14 9 -3 -13 10 -21 10 -22 -1 -9 -7 9 -13 33 -12 53 1 20 -3 36 -8 36
-6 0 -8 -7 -5 -15 4 -8 1 -17 -5 -21 -7 -4 -8 -3 -4 4 4 7 3 12 -3 12 -6 0 -7
7 -4 17 4 10 2 14 -5 9 -7 -4 -10 0 -7 12 2 10 -1 25 -6 33 -7 11 -9 11 -9 1
0 -7 -5 -10 -10 -7 -6 4 -8 10 -5 15 3 5 1 11 -5 15 -6 3 -8 17 -6 31 4 20 2
23 -13 14 -15 -8 -18 -5 -15 15 1 14 -2 25 -7 25 -6 0 -7 4 -4 10 3 6 -1 7 -9
4 -15 -6 -22 11 -17 39 1 5 -7 6 -18 2 -11 -3 -22 -1 -26 4 -3 6 0 8 8 5 8 -3
18 -1 21 4 3 5 -4 12 -15 15 -13 3 -19 11 -17 19 6 15 -16 40 -28 30 -4 -4 -4
1 -1 10 5 13 2 15 -11 11 -15 -6 -15 -5 -3 10 10 13 10 17 1 17 -7 0 -10 7 -6
16 6 15 4 15 -11 3 -9 -8 -14 -9 -10 -2 4 6 2 15 -4 18 -5 4 -8 14 -5 22 3 8
1 11 -4 8 -6 -3 -10 -1 -10 5 0 6 -4 9 -9 6 -5 -3 -15 2 -22 11 -10 12 -10 14
-1 9 7 -4 12 -2 12 8 0 8 -6 16 -12 19 -10 3 -10 7 1 20 17 21 8 22 -13 1 -15
-14 -16 -14 -17 0 -3 38 -19 76 -31 76 -7 0 -7 -4 1 -13 8 -10 7 -14 -3 -14
-8 0 -13 7 -11 16 1 9 -2 22 -8 29 -6 8 -5 12 4 12 12 0 12 2 0 9 -8 5 -19 7
-25 5 -10 -4 -15 10 -18 55 -1 8 -9 16 -19 18 -10 3 -20 12 -23 20 -4 9 -2 12
7 7 8 -5 7 -2 -2 9 -11 13 -11 17 -1 17 8 0 10 3 7 6 -4 4 -12 2 -20 -4 -17
-14 -34 12 -32 49 1 15 -4 26 -11 26 -11 0 -11 -3 -1 -16 11 -14 10 -14 -6 -2
-10 8 -16 20 -13 28 3 7 1 13 -4 13 -5 0 -7 6 -4 14 4 11 -1 13 -18 10 -13 -2
-17 -1 -10 2 9 4 7 11 -9 25 -12 10 -17 19 -11 19 6 0 10 9 9 19 0 11 -5 17
-9 15 -5 -3 -6 -9 -3 -14 6 -9 -25 -23 -33 -15 -3 3 0 5 6 5 7 0 12 7 12 15 0
8 -5 15 -11 15 -8 0 -8 4 0 14 9 11 8 15 -5 20 -23 9 -26 8 -18 -6 5 -10 4
-10 -6 -1 -15 13 -4 36 13 27 7 -4 8 -3 4 2 -5 5 -14 9 -20 9 -7 0 -11 13 -9
30 2 19 0 25 -6 17 -5 -7 -16 -10 -26 -6 -13 5 -14 9 -5 20 9 11 9 14 0 14 -7
0 -9 5 -6 10 8 13 -8 13 -22 -1 -7 -7 -9 -3 -6 15 4 17 1 26 -7 26 -7 0 -10 6
-7 13 3 8 1 20 -4 28 -7 12 -9 12 -9 0 0 -10 -3 -11 -14 -2 -8 7 -12 21 -8 33
4 17 2 20 -11 15 -12 -5 -17 -1 -18 13 -1 11 -2 26 -3 33 -1 16 -19 35 -31 34
-5 -1 -9 8 -9 21 1 23 -11 31 -18 10 -3 -7 -7 -5 -11 6 -4 9 -3 15 2 11 5 -3
12 -1 16 5 3 5 -3 10 -14 10 -11 0 -23 5 -26 10 -3 6 -2 10 3 10 5 0 9 6 9 14
0 7 -9 13 -20 12 -11 -1 -22 5 -25 13 -3 9 0 11 9 7 8 -4 0 5 -17 21 -22 19
-30 35 -28 51 2 12 -1 22 -7 22 -5 0 -7 5 -3 11 4 8 0 8 -15 0 -25 -14 -28 -4
-3 16 15 13 15 14 0 10 -20 -7 -33 33 -15 45 7 4 7 8 1 8 -5 0 -16 -6 -23 -12
-10 -11 -12 -10 -9 2 2 9 -3 14 -12 12 -12 -3 -12 -1 -3 9 16 16 5 43 -12 29
-9 -8 -14 -6 -19 5 -4 11 -2 14 7 9 9 -6 9 -5 0 7 -12 15 -13 18 -13 52 0 17
-2 19 -9 7 -6 -8 -8 -17 -5 -21 2 -4 0 -10 -5 -14 -6 -3 -8 4 -6 15 2 13 -2
23 -11 27 -13 5 -13 7 -3 14 10 6 9 9 -4 15 -13 5 -15 10 -7 19 8 10 8 15 -1
21 -7 4 -9 3 -6 -3 4 -6 1 -13 -6 -16 -14 -5 -16 0 -19 47 -1 14 -6 22 -10 20
-5 -3 -18 6 -29 20 -11 15 -25 23 -31 20 -7 -4 -8 -2 -4 5 4 6 11 9 16 6 5 -3
11 -1 15 5 3 5 -3 10 -15 10 -12 0 -19 4 -15 9 7 12 -24 43 -36 35 -5 -3 -8
-2 -7 3 4 15 -13 82 -22 88 -10 6 -7 -21 3 -31 4 -4 7 -12 7 -18 0 -19 -28 29
-32 54 -1 14 -8 25 -15 25 -6 0 -15 3 -19 8 -4 4 -2 7 4 7 7 0 12 5 12 11 0 5
-4 8 -9 5 -5 -3 -15 2 -22 11 -10 12 -10 14 -1 9 7 -4 12 -2 12 8 0 23 -18 28
-29 9 -11 -20 -15 -9 -12 34 1 11 -3 24 -10 29 -8 5 -10 3 -4 -7 6 -11 5 -12
-5 -2 -13 12 -20 38 -21 78 0 16 -2 17 -9 5 -10 -16 -25 -6 -25 17 0 9 -8 17
-18 19 -11 1 -22 6 -25 10 -4 4 0 5 8 2 8 -3 21 1 29 9 12 13 11 14 -7 9 -15
-5 -24 -1 -32 15 -7 12 -8 19 -2 15 6 -4 8 2 5 14 -5 19 -7 19 -18 4 -12 -18
-12 -19 -18 39 -4 34 -21 54 -32 36 -6 -8 -4 -10 5 -4 9 6 11 4 5 -5 -6 -9 -4
-11 5 -5 9 5 11 4 6 -4 -6 -9 -11 -9 -22 0 -7 6 -11 15 -8 20 3 5 -1 9 -8 9
-9 0 -10 2 -1 8 8 5 8 12 -2 25 -10 14 -14 15 -18 5 -4 -8 -6 -7 -6 5 -1 9 -7
17 -13 17 -9 0 -8 4 2 10 14 9 7 14 -13 11 -4 -1 -3 7 2 17 7 14 6 19 -4 19
-8 0 -12 -4 -9 -8 2 -4 -1 -11 -8 -15 -7 -4 -10 -4 -6 1 4 4 3 17 -3 28 -8 15
-8 18 1 12 8 -5 11 -3 8 5 -6 18 -35 21 -42 5z m-14 -53 c-7 -2 -9 -9 -6 -14
4 -7 2 -8 -4 -4 -6 4 -9 13 -6 21 4 8 11 12 17 8 8 -5 7 -8 -1 -11z m12 -50
c3 -5 -1 -9 -9 -9 -8 0 -12 4 -9 9 3 4 7 8 9 8 2 0 6 -4 9 -8z m11 -42 c3 -6
-1 -7 -9 -4 -18 7 -21 14 -7 14 6 0 13 -4 16 -10z m15 -100 c0 -5 -5 -10 -11
-10 -5 0 -7 5 -4 10 3 6 8 10 11 10 2 0 4 -4 4 -10z m10 -116 c0 -8 -19 -13
-24 -6 -3 5 1 9 9 9 8 0 15 -2 15 -3z m105 -3 c3 -5 2 -12 -3 -15 -5 -3 -9 1
-9 9 0 17 3 19 12 6z m-115 -81 c0 -5 -2 -10 -4 -10 -3 0 -8 5 -11 10 -3 6 -1
10 4 10 6 0 11 -4 11 -10z m0 -40 c0 -5 -5 -10 -11 -10 -5 0 -7 5 -4 10 3 6 8
10 11 10 2 0 4 -4 4 -10z m10 -36 c0 -8 -19 -13 -24 -6 -3 5 1 9 9 9 8 0 15
-2 15 -3z m-10 -84 c0 -5 -2 -10 -4 -10 -3 0 -8 5 -11 10 -3 6 -1 10 4 10 6 0
11 -4 11 -10z m0 -40 c0 -5 -5 -10 -11 -10 -5 0 -7 5 -4 10 3 6 8 10 11 10 2
0 4 -4 4 -10z m0 -120 c0 -5 -2 -10 -4 -10 -3 0 -8 5 -11 10 -3 6 -1 10 4 10
6 0 11 -4 11 -10z m-557 -96 c-4 -12 -8 -13 -14 -3 -9 15 -2 32 11 24 5 -3 6
-13 3 -21z m557 -24 c0 -5 -2 -10 -4 -10 -3 0 -8 5 -11 10 -3 6 -1 10 4 10 6
0 11 -4 11 -10z m10 -116 c0 -8 -19 -13 -24 -6 -3 5 1 9 9 9 8 0 15 -2 15 -3z
m-375 -73 c3 -5 2 -12 -3 -15 -5 -3 -9 1 -9 9 0 17 3 19 12 6z m365 -11 c0 -5
-2 -10 -4 -10 -3 0 -8 5 -11 10 -3 6 -1 10 4 10 6 0 11 -4 11 -10z m360 0 c0
-5 -2 -10 -4 -10 -3 0 -8 5 -11 10 -3 6 -1 10 4 10 6 0 11 -4 11 -10z m-360
-40 c0 -5 -5 -10 -11 -10 -5 0 -7 5 -4 10 3 6 8 10 11 10 2 0 4 -4 4 -10z m10
-36 c0 -8 -19 -13 -24 -6 -3 5 1 9 9 9 8 0 15 -2 15 -3z m-413 -89 c0 -8 -4
-12 -9 -9 -5 3 -6 10 -3 15 9 13 12 11 12 -6z m403 5 c0 -5 -2 -10 -4 -10 -3
0 -8 5 -11 10 -3 6 -1 10 4 10 6 0 11 -4 11 -10z m400 4 c0 -8 -19 -13 -24 -6
-3 5 1 9 9 9 8 0 15 -2 15 -3z m-400 -44 c0 -5 -5 -10 -11 -10 -5 0 -7 5 -4
10 3 6 8 10 11 10 2 0 4 -4 4 -10z m-830 -6 c0 -8 -19 -13 -24 -6 -3 5 1 9 9
9 8 0 15 -2 15 -3z m1704 -72 c3 -5 -1 -9 -9 -9 -8 0 -12 4 -9 9 3 4 7 8 9 8
2 0 6 -4 9 -8z m-874 -42 c0 -5 -2 -10 -4 -10 -3 0 -8 5 -11 10 -3 6 -1 10 4
10 6 0 11 -4 11 -10z m0 -120 c0 -5 -2 -10 -4 -10 -3 0 -8 5 -11 10 -3 6 -1
10 4 10 6 0 11 -4 11 -10z m10 -116 c0 -8 -19 -13 -24 -6 -3 5 1 9 9 9 8 0 15
-2 15 -3z m-560 -80 c0 -8 -19 -13 -24 -6 -3 5 1 9 9 9 8 0 15 -2 15 -3z m550
-4 c0 -5 -2 -10 -4 -10 -3 0 -8 5 -11 10 -3 6 -1 10 4 10 6 0 11 -4 11 -10z
m560 0 c0 -5 -5 -10 -11 -10 -5 0 -7 5 -4 10 3 6 8 10 11 10 2 0 4 -4 4 -10z
m-560 -40 c0 -5 -5 -10 -11 -10 -5 0 -7 5 -4 10 3 6 8 10 11 10 2 0 4 -4 4
-10z m10 -36 c0 -8 -19 -13 -24 -6 -3 5 1 9 9 9 8 0 15 -2 15 -3z m-10 -84 c0
-5 -2 -10 -4 -10 -3 0 -8 5 -11 10 -3 6 -1 10 4 10 6 0 11 -4 11 -10z m0 -40
c0 -5 -5 -10 -11 -10 -5 0 -7 5 -4 10 3 6 8 10 11 10 2 0 4 -4 4 -10z m1273
-57 c-3 -7 -6 -13 -8 -13 -2 0 -5 6 -8 13 -3 8 1 14 8 14 7 0 11 -6 8 -14z
m-1273 -63 c0 -5 -2 -10 -4 -10 -3 0 -8 5 -11 10 -3 6 -1 10 4 10 6 0 11 -4
11 -10z m0 -120 c0 -5 -2 -10 -4 -10 -3 0 -8 5 -11 10 -3 6 -1 10 4 10 6 0 11
-4 11 -10z m-710 -36 c0 -8 -19 -13 -24 -6 -3 5 1 9 9 9 8 0 15 -2 15 -3z
m1440 0 c0 -8 -19 -13 -24 -6 -3 5 1 9 9 9 8 0 15 -2 15 -3z m-720 -80 c0 -8
-19 -13 -24 -6 -3 5 1 9 9 9 8 0 15 -2 15 -3z m-10 -84 c0 -5 -2 -10 -4 -10
-3 0 -8 5 -11 10 -3 6 -1 10 4 10 6 0 11 -4 11 -10z m0 -40 c0 -5 -5 -10 -11
-10 -5 0 -7 5 -4 10 3 6 8 10 11 10 2 0 4 -4 4 -10z m10 -36 c0 -8 -19 -13
-24 -6 -3 5 1 9 9 9 8 0 15 -2 15 -3z m-816 -42 c3 -5 -1 -9 -9 -9 -8 0 -12 4
-9 9 3 4 7 8 9 8 2 0 6 -4 9 -8z m806 -42 c0 -5 -2 -10 -4 -10 -3 0 -8 5 -11
10 -3 6 -1 10 4 10 6 0 11 -4 11 -10z m1633 -15 c-3 -9 -8 -14 -10 -11 -3 3
-2 9 2 15 9 16 15 13 8 -4z m-1633 -25 c0 -5 -5 -10 -11 -10 -5 0 -7 5 -4 10
3 6 8 10 11 10 2 0 4 -4 4 -10z m850 -36 c0 -8 -19 -13 -24 -6 -3 5 1 9 9 9 8
0 15 -2 15 -3z m-2560 -58 c-7 -7 -13 -7 -20 0 -6 6 -3 10 10 10 13 0 16 -4
10 -10z m1710 -26 c0 -5 -2 -10 -4 -10 -3 0 -8 5 -11 10 -3 6 -1 10 4 10 6 0
11 -4 11 -10z m0 -120 c0 -5 -2 -10 -4 -10 -3 0 -8 5 -11 10 -3 6 -1 10 4 10
6 0 11 -4 11 -10z m-916 -38 c3 -5 -1 -9 -9 -9 -8 0 -12 4 -9 9 3 4 7 8 9 8 2
0 6 -4 9 -8z m1836 -2 c0 -5 -2 -10 -4 -10 -3 0 -8 5 -11 10 -3 6 -1 10 4 10
6 0 11 -4 11 -10z m960 -62 c0 -6 -6 -5 -15 2 -8 7 -15 14 -15 16 0 2 7 1 15
-2 8 -4 15 -11 15 -16z m-1870 -14 c0 -8 -19 -13 -24 -6 -3 5 1 9 9 9 8 0 15
-2 15 -3z m-1920 -49 c-7 -8 -17 -15 -23 -15 -6 0 -2 7 9 15 25 19 30 19 14 0z
m1910 -35 c0 -5 -2 -10 -4 -10 -3 0 -8 5 -11 10 -3 6 -1 10 4 10 6 0 11 -4 11
-10z m0 -40 c0 -5 -5 -10 -11 -10 -5 0 -7 5 -4 10 3 6 8 10 11 10 2 0 4 -4 4
-10z m10 -36 c0 -8 -19 -13 -24 -6 -3 5 1 9 9 9 8 0 15 -2 15 -3z m-2012 -29
c-3 -3 -9 2 -12 12 -6 14 -5 15 5 6 7 -7 10 -15 7 -18z m3997 15 c-3 -5 -12
-10 -18 -10 -7 0 -6 4 3 10 19 12 23 12 15 0z m-1995 -70 c0 -5 -2 -10 -4 -10
-3 0 -8 5 -11 10 -3 6 -1 10 4 10 6 0 11 -4 11 -10z m0 -40 c0 -5 -5 -10 -11
-10 -5 0 -7 5 -4 10 3 6 8 10 11 10 2 0 4 -4 4 -10z m2159 -129 c7 -13 6 -18
-5 -18 -7 0 -14 3 -15 6 0 3 -2 14 -4 24 -4 20 11 13 24 -12z m-2159 9 c0 -5
-2 -10 -4 -10 -3 0 -8 5 -11 10 -3 6 -1 10 4 10 6 0 11 -4 11 -10z m0 -120 c0
-5 -2 -10 -4 -10 -3 0 -8 5 -11 10 -3 6 -1 10 4 10 6 0 11 -4 11 -10z m1114 2
c3 -5 -1 -9 -9 -9 -8 0 -12 4 -9 9 3 4 7 8 9 8 2 0 6 -4 9 -8z m-1104 -118 c0
-8 -19 -13 -24 -6 -3 5 1 9 9 9 8 0 15 -2 15 -3z m-10 -84 c0 -5 -2 -10 -4
-10 -3 0 -8 5 -11 10 -3 6 -1 10 4 10 6 0 11 -4 11 -10z m2355 0 c3 -5 1 -10
-4 -10 -6 0 -11 5 -11 10 0 6 2 10 4 10 3 0 8 -4 11 -10z m-2355 -40 c0 -5 -5
-10 -11 -10 -5 0 -7 5 -4 10 3 6 8 10 11 10 2 0 4 -4 4 -10z m1195 -29 c3 -5
2 -12 -3 -15 -5 -3 -9 1 -9 9 0 17 3 19 12 6z m-1185 -7 c0 -8 -19 -13 -24 -6
-3 5 1 9 9 9 8 0 15 -2 15 -3z m-10 -84 c0 -5 -2 -10 -4 -10 -3 0 -8 5 -11 10
-3 6 -1 10 4 10 6 0 11 -4 11 -10z m-1230 -36 c0 -8 -19 -13 -24 -6 -3 5 1 9
9 9 8 0 15 -2 15 -3z m1230 -4 c0 -5 -5 -10 -11 -10 -5 0 -7 5 -4 10 3 6 8 10
11 10 2 0 4 -4 4 -10z m0 -120 c0 -5 -2 -10 -4 -10 -3 0 -8 5 -11 10 -3 6 -1
10 4 10 6 0 11 -4 11 -10z m-1320 -114 c0 -3 -4 -8 -10 -11 -5 -3 -10 -1 -10
4 0 6 5 11 10 11 6 0 10 -2 10 -4z m1320 -6 c0 -5 -2 -10 -4 -10 -3 0 -8 5
-11 10 -3 6 -1 10 4 10 6 0 11 -4 11 -10z m10 -116 c0 -8 -19 -13 -24 -6 -3 5
1 9 9 9 8 0 15 -2 15 -3z m1350 -4 c0 -5 -2 -10 -4 -10 -3 0 -8 5 -11 10 -3 6
-1 10 4 10 6 0 11 -4 11 -10z m1354 -8 c3 -5 -1 -9 -9 -9 -8 0 -12 4 -9 9 3 4
7 8 9 8 2 0 6 -4 9 -8z m-2714 -72 c0 -5 -2 -10 -4 -10 -3 0 -8 5 -11 10 -3 6
-1 10 4 10 6 0 11 -4 11 -10z m0 -40 c0 -5 -5 -10 -11 -10 -5 0 -7 5 -4 10 3
6 8 10 11 10 2 0 4 -4 4 -10z m10 -36 c0 -8 -19 -13 -24 -6 -3 5 1 9 9 9 8 0
15 -2 15 -3z m-10 -84 c0 -5 -2 -10 -4 -10 -3 0 -8 5 -11 10 -3 6 -1 10 4 10
6 0 11 -4 11 -10z m2875 -10 c-3 -5 -12 -10 -18 -10 -7 0 -6 4 3 10 19 12 23
12 15 0z m-2875 -30 c0 -5 -5 -10 -11 -10 -5 0 -7 5 -4 10 3 6 8 10 11 10 2 0
4 -4 4 -10z m1477 -85 c0 -8 -4 -12 -9 -9 -5 3 -6 10 -3 15 9 13 12 11 12 -6z
m-1477 -35 c0 -5 -2 -10 -4 -10 -3 0 -8 5 -11 10 -3 6 -1 10 4 10 6 0 11 -4
11 -10z m0 -120 c0 -5 -2 -10 -4 -10 -3 0 -8 5 -11 10 -3 6 -1 10 4 10 6 0 11
-4 11 -10z m10 -116 c0 -8 -19 -13 -24 -6 -3 5 1 9 9 9 8 0 15 -2 15 -3z m-10
-84 c0 -5 -2 -10 -4 -10 -3 0 -8 5 -11 10 -3 6 -1 10 4 10 6 0 11 -4 11 -10z
m0 -40 c0 -5 -5 -10 -11 -10 -5 0 -7 5 -4 10 3 6 8 10 11 10 2 0 4 -4 4 -10z
m0 -120 c0 -5 -2 -10 -4 -10 -3 0 -8 5 -11 10 -3 6 -1 10 4 10 6 0 11 -4 11
-10z m0 -120 c0 -5 -2 -10 -4 -10 -3 0 -8 5 -11 10 -3 6 -1 10 4 10 6 0 11 -4
11 -10z m1673 -15 c-7 -21 -12 -19 -10 4 0 11 5 18 9 15 4 -3 5 -11 1 -19z
m42 -105 c3 -5 1 -10 -4 -10 -6 0 -11 5 -11 10 0 6 2 10 4 10 3 0 8 -4 11 -10z
m-1715 -80 c0 -5 -2 -10 -4 -10 -3 0 -8 5 -11 10 -3 6 -1 10 4 10 6 0 11 -4
11 -10z m-3514 -57 c-10 -11 -19 -7 -22 10 -2 15 0 16 12 6 8 -6 12 -14 10
-16z m7034 12 c0 -2 -6 -5 -13 -8 -8 -3 -14 1 -14 8 0 7 6 11 14 8 7 -3 13 -6
13 -8z m-3520 -75 c0 -5 -2 -10 -4 -10 -3 0 -8 5 -11 10 -3 6 -1 10 4 10 6 0
11 -4 11 -10z m1800 -34 c0 -3 -4 -8 -10 -11 -5 -3 -10 -1 -10 4 0 6 5 11 10
11 6 0 10 -2 10 -4z m-1800 -166 c0 -5 -5 -10 -11 -10 -5 0 -7 5 -4 10 3 6 8
10 11 10 2 0 4 -4 4 -10z m3720 -40 c0 -5 -5 -10 -11 -10 -5 0 -7 5 -4 10 3 6
8 10 11 10 2 0 4 -4 4 -10z m-3720 -40 c0 -5 -5 -10 -11 -10 -5 0 -7 5 -4 10
3 6 8 10 11 10 2 0 4 -4 4 -10z m0 -80 c0 -5 -5 -10 -11 -10 -5 0 -7 5 -4 10
3 6 8 10 11 10 2 0 4 -4 4 -10z m10 -76 c0 -8 -19 -13 -24 -6 -3 5 1 9 9 9 8
0 15 -2 15 -3z m-10 -84 c0 -5 -2 -10 -4 -10 -3 0 -8 5 -11 10 -3 6 -1 10 4
10 6 0 11 -4 11 -10z m0 -40 c0 -5 -5 -10 -11 -10 -5 0 -7 5 -4 10 3 6 8 10
11 10 2 0 4 -4 4 -10z m0 -120 c0 -5 -2 -10 -4 -10 -3 0 -8 5 -11 10 -3 6 -1
10 4 10 6 0 11 -4 11 -10z m1995 0 c3 -5 1 -10 -4 -10 -6 0 -11 5 -11 10 0 6
2 10 4 10 3 0 8 -4 11 -10z m2044 -64 c0 -7 -2 -6 -6 2 -2 6 -8 10 -12 8 -4
-3 -8 1 -8 9 0 11 4 12 14 4 7 -6 13 -17 12 -23z m-4039 -56 c0 -5 -2 -10 -4
-10 -3 0 -8 5 -11 10 -3 6 -1 10 4 10 6 0 11 -4 11 -10z m2044 2 c3 -5 -1 -9
-9 -9 -8 0 -12 4 -9 9 3 4 7 8 9 8 2 0 6 -4 9 -8z m-6200 -110 c3 -5 -1 -9 -9
-9 -8 0 -12 4 -9 9 3 4 7 8 9 8 2 0 6 -4 9 -8z m2076 -6 c0 -3 -4 -8 -10 -11
-5 -3 -10 -1 -10 4 0 6 5 11 10 11 6 0 10 -2 10 -4z m2090 -2 c0 -8 -19 -13
-24 -6 -3 5 1 9 9 9 8 0 15 -2 15 -3z m-10 -84 c0 -5 -2 -10 -4 -10 -3 0 -8 5
-11 10 -3 6 -1 10 4 10 6 0 11 -4 11 -10z m0 -40 c0 -5 -5 -10 -11 -10 -5 0
-7 5 -4 10 3 6 8 10 11 10 2 0 4 -4 4 -10z m2115 0 c3 -5 1 -10 -4 -10 -6 0
-11 5 -11 10 0 6 2 10 4 10 3 0 8 -4 11 -10z m-2115 -120 c0 -5 -5 -10 -11
-10 -5 0 -7 5 -4 10 3 6 8 10 11 10 2 0 4 -4 4 -10z m2155 0 c3 -5 1 -10 -4
-10 -6 0 -11 5 -11 10 0 6 2 10 4 10 3 0 8 -4 11 -10z m-6472 -17 c-3 -7 -6
-13 -8 -13 -2 0 -5 6 -8 13 -3 8 1 14 8 14 7 0 11 -6 8 -14z m4317 -63 c0 -5
-5 -10 -11 -10 -5 0 -7 5 -4 10 3 6 8 10 11 10 2 0 4 -4 4 -10z m0 -80 c0 -5
-5 -10 -11 -10 -5 0 -7 5 -4 10 3 6 8 10 11 10 2 0 4 -4 4 -10z m-2230 -76 c0
-8 -19 -13 -24 -6 -3 5 1 9 9 9 8 0 15 -2 15 -3z m6700 -24 c0 -5 -2 -10 -4
-10 -3 0 -8 5 -11 10 -3 6 -1 10 4 10 6 0 11 -4 11 -10z m-4470 -60 c0 -5 -2
-10 -4 -10 -3 0 -8 5 -11 10 -3 6 -1 10 4 10 6 0 11 -4 11 -10z m-4595 -119
c3 -5 0 -13 -6 -17 -7 -4 -9 -3 -5 4 3 5 0 13 -6 15 -9 4 -10 6 -1 6 6 1 14
-3 18 -8z m4595 -1 c0 -5 -2 -10 -4 -10 -3 0 -8 5 -11 10 -3 6 -1 10 4 10 6 0
11 -4 11 -10z m-2323 -35 c0 -8 -4 -12 -9 -9 -5 3 -6 10 -3 15 9 13 12 11 12
-6z m-2352 -94 c3 -5 2 -12 -3 -15 -5 -3 -9 1 -9 9 0 17 3 19 12 6z m4675 -71
c0 -5 -2 -10 -4 -10 -3 0 -8 5 -11 10 -3 6 -1 10 4 10 6 0 11 -4 11 -10z
m2221 -53 c-10 -9 -11 -8 -5 6 3 10 9 15 12 12 3 -3 0 -11 -7 -18z m-2221 -67
c0 -5 -2 -10 -4 -10 -3 0 -8 5 -11 10 -3 6 -1 10 4 10 6 0 11 -4 11 -10z
m2040 -84 c0 -3 -4 -8 -10 -11 -5 -3 -10 -1 -10 4 0 6 5 11 10 11 6 0 10 -2
10 -4z m-2040 -116 c0 -5 -5 -10 -11 -10 -5 0 -7 5 -4 10 3 6 8 10 11 10 2 0
4 -4 4 -10z m0 -80 c0 -5 -5 -10 -11 -10 -5 0 -7 5 -4 10 3 6 8 10 11 10 2 0
4 -4 4 -10z m0 -80 c0 -5 -5 -10 -11 -10 -5 0 -7 5 -4 10 3 6 8 10 11 10 2 0
4 -4 4 -10z m10 -76 c0 -8 -19 -13 -24 -6 -3 5 1 9 9 9 8 0 15 -2 15 -3z m-10
-84 c0 -5 -2 -10 -4 -10 -3 0 -8 5 -11 10 -3 6 -1 10 4 10 6 0 11 -4 11 -10z
m0 -40 c0 -5 -5 -10 -11 -10 -5 0 -7 5 -4 10 3 6 8 10 11 10 2 0 4 -4 4 -10z
m0 -120 c0 -5 -2 -10 -4 -10 -3 0 -8 5 -11 10 -3 6 -1 10 4 10 6 0 11 -4 11
-10z m-1233 -35 c0 -8 -4 -12 -9 -9 -5 3 -6 10 -3 15 9 13 12 11 12 -6z m1233
-85 c0 -5 -2 -10 -4 -10 -3 0 -8 5 -11 10 -3 6 -1 10 4 10 6 0 11 -4 11 -10z
m-1039 -83 c-10 -9 -11 -8 -5 6 3 10 9 15 12 12 3 -3 0 -11 -7 -18z m1049 -33
c0 -8 -19 -13 -24 -6 -3 5 1 9 9 9 8 0 15 -2 15 -3z m880 -79 c-14 -17 -30
-20 -30 -4 0 5 4 8 9 4 5 -3 12 -1 16 5 3 5 9 10 12 10 3 0 0 -7 -7 -15z
m-890 -5 c0 -5 -2 -10 -4 -10 -3 0 -8 5 -11 10 -3 6 -1 10 4 10 6 0 11 -4 11
-10z m0 -40 c0 -5 -5 -10 -11 -10 -5 0 -7 5 -4 10 3 6 8 10 11 10 2 0 4 -4 4
-10z m0 -120 c0 -5 -5 -10 -11 -10 -5 0 -7 5 -4 10 3 6 8 10 11 10 2 0 4 -4 4
-10z m0 -80 c0 -5 -5 -10 -11 -10 -5 0 -7 5 -4 10 3 6 8 10 11 10 2 0 4 -4 4
-10z m-475 -80 c-3 -5 -11 -10 -16 -10 -6 0 -7 5 -4 10 3 6 11 10 16 10 6 0 7
-4 4 -10z m475 0 c0 -5 -5 -10 -11 -10 -5 0 -7 5 -4 10 3 6 8 10 11 10 2 0 4
-4 4 -10z m0 -160 c0 -5 -2 -10 -4 -10 -3 0 -8 5 -11 10 -3 6 -1 10 4 10 6 0
11 -4 11 -10z m0 -120 c0 -5 -2 -10 -4 -10 -3 0 -8 5 -11 10 -3 6 -1 10 4 10
6 0 11 -4 11 -10z m-12 -85 c-3 -3 -9 2 -12 12 -6 14 -5 15 5 6 7 -7 10 -15 7
-18z"/>
<path d="M4560 9116 c0 -2 7 -7 16 -10 8 -3 12 -2 9 4 -6 10 -25 14 -25 6z"/>
<path d="M4410 8871 c0 -6 4 -13 10 -16 6 -3 7 1 4 9 -7 18 -14 21 -14 7z"/>
<path d="M4360 8788 c0 -4 4 -8 9 -8 6 0 12 4 15 8 3 5 -1 9 -9 9 -8 0 -15 -4
-15 -9z"/>
<path d="M5135 8620 c3 -5 8 -10 11 -10 2 0 4 5 4 10 0 6 -5 10 -11 10 -5 0
-7 -4 -4 -10z"/>
<path d="M5195 8520 c3 -5 8 -10 11 -10 2 0 4 5 4 10 0 6 -5 10 -11 10 -5 0
-7 -4 -4 -10z"/>
<path d="M4010 8229 c0 -5 5 -7 10 -4 6 3 10 8 10 11 0 2 -4 4 -10 4 -5 0 -10
-5 -10 -11z"/>
<path d="M5456 8111 c-3 -5 1 -11 9 -15 8 -3 15 -1 15 4 0 13 -18 22 -24 11z"/>
<path d="M3603 7625 c0 -8 4 -12 9 -9 5 3 6 10 3 15 -9 13 -12 11 -12 -6z"/>
<path d="M2840 6430 c0 -5 7 -7 15 -4 8 4 15 8 15 10 0 2 -7 4 -15 4 -8 0 -15
-4 -15 -10z"/>
<path d="M2445 5820 c-3 -6 1 -7 9 -4 18 7 21 14 7 14 -6 0 -13 -4 -16 -10z"/>
<path d="M2415 5750 c3 -5 2 -10 -3 -10 -6 0 -13 -8 -16 -17 -6 -15 -5 -15 13
1 18 16 20 36 5 36 -3 0 -2 -4 1 -10z"/>
<path d="M2328 5633 c7 -3 16 -2 19 1 4 3 -2 6 -13 5 -11 0 -14 -3 -6 -6z"/>
<path d="M7375 5151 c-3 -5 -2 -12 3 -15 5 -3 9 1 9 9 0 17 -3 19 -12 6z"/>
<path d="M1805 4820 c-3 -5 -2 -10 4 -10 5 0 13 5 16 10 3 6 2 10 -4 10 -5 0
-13 -4 -16 -10z"/>
<path d="M8020 4151 c0 -6 4 -13 10 -16 6 -3 7 1 4 9 -7 18 -14 21 -14 7z"/>
<path d="M1375 4140 c3 -5 8 -10 11 -10 2 0 4 5 4 10 0 6 -5 10 -11 10 -5 0
-7 -4 -4 -10z"/>
<path d="M8136 3962 c-3 -5 1 -17 8 -27 7 -10 15 -14 19 -9 3 5 -1 17 -8 27
-7 10 -16 14 -19 9z"/>
<path d="M8295 3700 c-3 -5 -2 -10 4 -10 5 0 13 5 16 10 3 6 2 10 -4 10 -5 0
-13 -4 -16 -10z"/>
<path d="M8376 3591 c-3 -5 2 -15 12 -22 16 -13 16 -13 2 5 -14 18 -13 19 3
13 11 -4 16 -3 12 3 -8 12 -22 13 -29 1z"/>
<path d="M930 3460 c0 -5 5 -10 11 -10 5 0 7 5 4 10 -3 6 -8 10 -11 10 -2 0
-4 -4 -4 -10z"/>
<path d="M891 3394 c0 -11 3 -14 6 -6 3 7 2 16 -1 19 -3 4 -6 -2 -5 -13z"/>
<path d="M727 3146 c-4 -10 -1 -13 8 -9 8 3 12 9 9 14 -7 12 -11 11 -17 -5z"/>
<path d="M9020 2579 c0 -5 5 -7 10 -4 6 3 10 8 10 11 0 2 -4 4 -10 4 -5 0 -10
-5 -10 -11z"/>
<path d="M9372 2026 c17 -12 17 -14 0 -30 -10 -9 -22 -14 -25 -11 -4 3 -3 0 3
-7 13 -16 47 -17 47 -2 0 7 -7 10 -16 7 -13 -4 -13 -2 2 10 23 19 21 34 -5 40
-21 5 -21 5 -6 -7z"/>
<path d="M76 1978 c5 -7 2 -9 -8 -6 -8 4 -21 2 -29 -4 -11 -8 -11 -9 2 -5 9 3
22 0 28 -6 8 -8 11 -8 11 2 0 7 5 9 13 5 8 -5 8 -2 -2 9 -15 19 -26 23 -15 5z"/>
<path d="M146 1974 c-4 -9 -4 -19 -1 -22 3 -3 5 0 5 7 0 8 6 11 16 7 14 -5 15
-4 4 9 -16 19 -16 19 -24 -1z"/>
<path d="M306 1974 c-9 -23 -7 -31 3 -15 13 21 44 24 37 4 -5 -12 -4 -13 7 -5
8 7 17 10 21 7 3 -3 2 0 -2 5 -15 19 -59 21 -66 4z"/>
<path d="M515 1982 c3 -3 -1 -12 -8 -21 -10 -14 -10 -14 5 -3 9 8 22 11 27 7
6 -3 8 0 5 8 -2 7 -11 14 -19 14 -8 0 -13 -3 -10 -5z"/>
<path d="M560 1981 c8 -5 18 -7 22 -5 4 3 8 -3 9 -13 0 -11 3 -13 6 -5 2 6 10
9 16 6 9 -5 9 -4 1 5 -6 6 -24 14 -40 17 -21 3 -25 2 -14 -5z"/>
<path d="M753 1975 c0 -6 8 -11 18 -11 9 0 15 5 12 11 -2 7 -10 12 -17 12 -7
0 -13 -5 -13 -12z"/>
<path d="M800 1981 c8 -5 18 -7 24 -4 5 4 7 -1 2 -12 -5 -14 -4 -16 7 -7 8 7
17 10 21 7 3 -3 2 0 -2 5 -5 6 -22 13 -38 16 -21 3 -25 2 -14 -5z"/>
<path d="M930 1979 c0 -6 -6 -7 -12 -3 -7 4 -10 3 -5 -1 4 -5 21 -9 37 -10 21
-1 27 2 20 9 -13 13 -40 17 -40 5z"/>
<path d="M1106 1974 c-4 -9 -4 -19 -1 -22 3 -3 5 0 5 7 0 8 6 11 16 7 14 -5
15 -4 4 9 -16 19 -16 19 -24 -1z"/>
<path d="M1266 1974 c-9 -23 -7 -31 3 -15 13 21 44 24 37 4 -5 -12 -4 -13 7
-5 8 7 17 10 21 7 3 -3 2 0 -2 5 -15 19 -59 21 -66 4z"/>
<path d="M1475 1982 c3 -3 -1 -12 -8 -21 -10 -14 -10 -14 5 -3 9 8 22 11 27 7
6 -3 8 0 5 8 -2 7 -11 14 -19 14 -8 0 -13 -3 -10 -5z"/>
<path d="M1520 1981 c8 -5 18 -7 22 -5 4 3 8 -3 9 -13 0 -11 3 -13 6 -5 2 6
10 9 16 6 9 -5 9 -4 1 5 -6 6 -24 14 -40 17 -21 3 -25 2 -14 -5z"/>
<path d="M1713 1975 c0 -6 8 -11 18 -11 9 0 15 5 12 11 -2 7 -10 12 -17 12 -7
0 -13 -5 -13 -12z"/>
<path d="M1760 1981 c8 -5 18 -7 24 -4 5 4 7 -1 2 -12 -5 -14 -4 -16 7 -7 8 7
17 10 21 7 3 -3 2 0 -2 5 -5 6 -22 13 -38 16 -21 3 -25 2 -14 -5z"/>
<path d="M1890 1979 c0 -6 -6 -7 -12 -3 -7 4 -10 3 -5 -1 4 -5 21 -9 37 -10
21 -1 27 2 20 9 -13 13 -40 17 -40 5z"/>
<path d="M2066 1974 c-4 -9 -4 -19 -1 -22 3 -3 5 0 5 7 0 8 6 11 16 7 14 -5
15 -4 4 9 -16 19 -16 19 -24 -1z"/>
<path d="M2226 1974 c-9 -23 -7 -31 3 -15 13 21 44 24 37 4 -5 -12 -4 -13 7
-5 8 7 17 10 21 7 3 -3 2 0 -2 5 -15 19 -59 21 -66 4z"/>
<path d="M7115 1979 c4 -6 0 -9 -10 -7 -10 2 -20 -4 -22 -12 -3 -9 -1 -11 4
-5 4 6 18 10 31 9 18 -1 20 1 11 12 -14 17 -23 19 -14 3z"/>
<path d="M7186 1974 c-4 -9 -4 -19 -1 -22 3 -3 5 0 5 7 0 8 6 11 16 7 14 -5
15 -4 4 9 -16 19 -16 19 -24 -1z"/>
<path d="M7346 1974 c-9 -23 -7 -31 3 -15 13 21 44 24 37 4 -5 -12 -4 -13 7
-5 8 7 17 10 21 7 3 -3 2 0 -2 5 -15 19 -59 21 -66 4z"/>
<path d="M7555 1982 c3 -3 -1 -12 -8 -21 -10 -14 -10 -14 5 -3 9 8 22 11 27 7
6 -3 8 0 5 8 -2 7 -11 14 -19 14 -8 0 -13 -3 -10 -5z"/>
<path d="M7600 1981 c8 -5 18 -7 22 -5 4 3 8 -3 9 -13 0 -11 3 -13 6 -5 2 6
10 9 16 6 9 -5 9 -4 1 5 -6 6 -24 14 -40 17 -21 3 -25 2 -14 -5z"/>
<path d="M7793 1975 c0 -6 8 -11 18 -11 9 0 15 5 12 11 -2 7 -10 12 -17 12 -7
0 -13 -5 -13 -12z"/>
<path d="M7840 1981 c8 -5 18 -7 24 -4 5 4 7 -1 2 -12 -5 -14 -4 -16 7 -7 8 7
17 10 21 7 3 -3 2 0 -2 5 -5 6 -22 13 -38 16 -21 3 -25 2 -14 -5z"/>
<path d="M7970 1979 c0 -6 -6 -7 -12 -3 -7 4 -10 3 -5 -1 4 -5 21 -9 37 -10
21 -1 27 2 20 9 -13 13 -40 17 -40 5z"/>
<path d="M8146 1974 c-4 -9 -4 -19 -1 -22 3 -3 5 0 5 7 0 8 6 11 16 7 14 -5
15 -4 4 9 -16 19 -16 19 -24 -1z"/>
<path d="M8306 1974 c-9 -23 -7 -31 3 -15 13 21 44 24 37 4 -5 -12 -4 -13 7
-5 8 7 17 10 21 7 3 -3 2 0 -2 5 -15 19 -59 21 -66 4z"/>
<path d="M8515 1982 c3 -3 -1 -12 -8 -21 -10 -14 -10 -14 5 -3 9 8 22 11 27 7
6 -3 8 0 5 8 -2 7 -11 14 -19 14 -8 0 -13 -3 -10 -5z"/>
<path d="M8560 1981 c8 -5 18 -7 22 -5 4 3 8 -3 9 -13 0 -11 3 -13 6 -5 2 6
10 9 16 6 9 -5 9 -4 1 5 -6 6 -24 14 -40 17 -21 3 -25 2 -14 -5z"/>
<path d="M8753 1975 c0 -6 8 -11 18 -11 9 0 15 5 12 11 -2 7 -10 12 -17 12 -7
0 -13 -5 -13 -12z"/>
<path d="M8800 1981 c8 -5 18 -7 24 -4 5 4 7 -1 2 -12 -5 -14 -4 -16 7 -7 8 7
17 10 21 7 3 -3 2 0 -2 5 -5 6 -22 13 -38 16 -21 3 -25 2 -14 -5z"/>
<path d="M8930 1979 c0 -6 -6 -7 -12 -3 -7 4 -10 3 -5 -1 4 -5 21 -9 37 -10
21 -1 27 2 20 9 -13 13 -40 17 -40 5z"/>
<path d="M9106 1974 c-4 -9 -4 -19 -1 -22 3 -3 5 0 5 7 0 8 6 11 16 7 14 -5
15 -4 4 9 -16 19 -16 19 -24 -1z"/>
<path d="M9266 1974 c-9 -24 -2 -26 12 -4 7 11 8 20 3 20 -5 0 -12 -7 -15 -16z"/>
<path d="M9306 1979 c2 -4 1 -9 -3 -12 -5 -2 -2 -2 6 0 7 2 20 -2 29 -9 13
-11 14 -11 2 8 -7 11 -19 21 -26 21 -7 0 -11 -4 -8 -8z"/>
<path d="M2486 1852 c-3 -5 1 -9 9 -9 8 0 12 4 9 9 -3 4 -7 8 -9 8 -2 0 -6 -4
-9 -8z"/>
<path d="M6911 1844 c0 -11 3 -14 6 -6 3 7 2 16 -1 19 -3 4 -6 -2 -5 -13z"/>
<path d="M6545 1571 c-3 -5 -2 -12 3 -15 5 -3 9 1 9 9 0 17 -3 19 -12 6z"/>
<path d="M2890 1531 c0 -6 4 -13 10 -16 6 -3 7 1 4 9 -7 18 -14 21 -14 7z"/>
<path d="M6334 1409 c-4 -7 -3 -9 4 -5 5 3 13 0 15 -6 4 -9 6 -10 6 -1 1 17
-16 25 -25 12z"/>
<path d="M5350 620 c0 -5 5 -10 11 -10 5 0 7 5 4 10 -3 6 -8 10 -11 10 -2 0
-4 -4 -4 -10z"/>
<path d="M4409 348 c0 -2 -2 -11 -4 -21 -3 -15 -1 -16 11 -6 7 6 11 15 8 20
-5 9 -13 12 -15 7z"/>
<path d="M4983 335 c0 -8 4 -15 9 -15 4 0 8 4 8 9 0 6 -4 12 -8 15 -5 3 -9 -1
-9 -9z"/>
</g>
</svg>
